<svg width="40" height="40" viewBox="0 0 40 40" fill="none" xmlns="http://www.w3.org/2000/svg">
<rect width="40" height="40" fill="white"/>
<path d="M14.2116 33.8084C10.9811 33.0444 8.46845 30.1476 8.06336 26.7521C7.53006 22.2903 10.417 18.2422 14.7039 17.4411C15.5089 17.2925 16.314 17.2607 17.1242 17.3562C17.2165 17.3668 17.3088 17.388 17.4062 17.404C17.4062 18.8895 17.4062 20.3591 17.4062 21.8552C17.1652 21.8075 16.9447 21.7597 16.7242 21.7279C14.6423 21.4043 12.6425 22.9588 12.3656 25.1181C12.0477 27.601 13.9142 29.755 16.3242 29.6807C18.3907 29.6118 20.0932 27.8557 20.0778 25.5425C20.0522 21.6695 20.0778 7.11672 20.0778 7C21.5136 7 22.9135 7 24.2877 7C24.3954 7.60482 24.4518 8.20433 24.6056 8.77732C25.344 11.6051 27.8464 13.6477 30.6718 13.7538C30.7795 13.7591 30.8872 13.7803 31 13.7963C31 15.2446 31 16.693 31 18.1414C30.9231 18.1467 30.8462 18.1573 30.7692 18.1573C28.9694 18.1308 27.2823 17.6586 25.7132 16.7567C25.2569 16.4914 24.821 16.1837 24.3492 15.876C24.3492 15.9874 24.3492 16.0776 24.3492 16.1731C24.3595 19.2715 24.3698 22.3698 24.3698 25.4682C24.3698 25.898 24.3441 26.333 24.2928 26.7628C23.8929 30.2325 21.2418 33.1929 17.9241 33.872C17.4472 33.9622 15.9294 34.1373 14.2116 33.8084Z" fill="black"/>
</svg>
