<svg width="40" height="40" viewBox="0 0 40 40" fill="none" xmlns="http://www.w3.org/2000/svg">
<rect width="40" height="40" fill="white"/>
<path fill-rule="evenodd" clip-rule="evenodd" d="M33.3839 11.5446C32.6362 12.6384 31.7321 13.5703 30.6719 14.3404C30.683 14.4966 30.6886 14.731 30.6886 15.0435C30.6886 16.4944 30.4766 17.9425 30.0525 19.3878C29.6284 20.8331 28.9838 22.2198 28.1189 23.548C27.2539 24.8761 26.2243 26.0508 25.0301 27.072C23.8359 28.0932 22.3962 28.9079 20.7109 29.5162C19.0257 30.1244 17.2232 30.4286 15.3036 30.4286C12.279 30.4286 9.51116 29.6194 7 28.0011C7.39063 28.0457 7.82589 28.0681 8.3058 28.0681C10.817 28.0681 13.0547 27.298 15.019 25.7578C13.8471 25.7355 12.798 25.3755 11.8717 24.678C10.9453 23.9804 10.3092 23.0904 9.96317 22.0078C10.3315 22.0636 10.6719 22.0915 10.9844 22.0915C11.4643 22.0915 11.9386 22.0301 12.4074 21.9073C11.1574 21.6506 10.1222 21.0284 9.3019 20.0407C8.48159 19.053 8.07143 17.9062 8.07143 16.6004V16.5335C8.83036 16.9576 9.64509 17.1864 10.5156 17.2198C9.77902 16.7288 9.19309 16.087 8.75782 15.2946C8.32255 14.5022 8.10492 13.6428 8.10492 12.7165C8.10492 11.7344 8.35045 10.8248 8.84152 9.98771C10.192 11.6507 11.8354 12.9816 13.7718 13.9805C15.7082 14.9793 17.7813 15.5346 19.9911 15.6462C19.9018 15.2221 19.8572 14.8091 19.8572 14.4074C19.8572 12.9118 20.3845 11.6367 21.4392 10.582C22.4939 9.52734 23.769 9 25.2645 9C26.827 9 28.144 9.5692 29.2154 10.7076C30.4319 10.4732 31.5759 10.0379 32.6473 9.40179C32.2344 10.6853 31.442 11.6786 30.2701 12.3817C31.308 12.2701 32.346 11.9911 33.3839 11.5446L33.3839 11.5446Z" fill="#0A0A0E"/>
</svg>
