<svg width="40" height="40" viewBox="0 0 40 40" fill="none" xmlns="http://www.w3.org/2000/svg">
<rect width="40" height="40" fill="white"/>
<path fill-rule="evenodd" clip-rule="evenodd" d="M13.3069 11.2545C17.4294 10.9152 21.5706 10.9152 25.6931 11.2545L28.4623 11.4825C30.0048 11.6095 31.2666 12.8259 31.5215 14.4317C32.1595 18.4493 32.1595 22.5507 31.5215 26.5684C31.2666 28.1741 30.0048 29.3905 28.4623 29.5176L25.6931 29.7455C21.5706 30.0848 17.4294 30.0848 13.3069 29.7455L10.5377 29.5176C8.99528 29.3905 7.73344 28.1741 7.47847 26.5684C6.84051 22.5507 6.84051 18.4493 7.47847 14.4317C7.73344 12.8259 8.99528 11.6095 10.5377 11.4825L13.3069 11.2545ZM17.0282 23.7123V17.2877C17.0282 16.9845 17.3426 16.7972 17.5897 16.9532L22.6777 20.1655C22.9177 20.317 22.9177 20.683 22.6777 20.8345L17.5897 24.0469C17.3426 24.2029 17.0282 24.0155 17.0282 23.7123Z" fill="black"/>
</svg>
